<svg width="35" height="39" viewBox="0 0 35 39" fill="none" xmlns="http://www.w3.org/2000/svg">
<path d="M34.3473 11.5649C34.3639 11.4307 34.3639 11.2947 34.3473 11.1605V11.0065C34.318 10.899 34.2779 10.7957 34.2278 10.6984C34.2057 10.643 34.1769 10.5912 34.1424 10.5444L33.9717 10.2941L33.8351 10.1786L33.6302 10.0053L18.2638 0.378077C18.0042 0.209084 17.7098 0.120117 17.4101 0.120117C17.1104 0.120117 16.8159 0.209084 16.5564 0.378077L1.18993 10.0053L1.03626 10.1401L0.848452 10.2941C0.79885 10.357 0.758501 10.4285 0.728935 10.5059C0.674308 10.5611 0.628156 10.6262 0.592344 10.6984C0.548012 10.7829 0.513578 10.8735 0.489901 10.968C0.480349 11.0317 0.480349 11.0968 0.489901 11.1605C0.372511 11.2747 0.274206 11.4116 0.199646 11.5649V26.9684C0.201862 27.3115 0.285336 27.6477 0.441431 27.9422C0.597526 28.2367 0.82057 28.4788 1.08749 28.6435L16.4539 38.2707C16.5245 38.3171 16.5988 38.3558 16.6759 38.3862H16.8466C17.1271 38.463 17.4198 38.463 17.7003 38.3862H17.8711L18.1101 38.2707L33.4766 28.6435C33.7403 28.4763 33.9599 28.2331 34.1129 27.9388C34.2659 27.6445 34.3468 27.3096 34.3473 26.9684V11.5649ZM17.2735 19.0163L5.42424 11.5649L10.1366 8.63821L21.7981 16.1474L17.2735 19.0163ZM17.2735 4.15194L29.1227 11.5649L25.2982 13.9717L13.6368 6.44321L17.2735 4.15194ZM3.61441 14.8381L15.5661 22.3858V33.3223L3.61441 25.8324V14.8381ZM18.9809 33.3223V22.3858L24.103 19.1511V25.0429L27.5178 23.1175V16.9946L30.9326 14.8574V25.8324L18.9809 33.3223Z" fill="#50566C"/>
</svg>
