<svg width="366" height="462" viewBox="0 0 366 462" fill="none" xmlns="http://www.w3.org/2000/svg">
<g clip-path="url(#clip0_71_338)">
<path d="M365.619 218.147V105.612L182.461 0V112.481L365.619 218.147Z" fill="#4D565D"/>
<path d="M365.619 356.387V243.852L182.461 349.518V462L365.619 356.387Z" fill="#707D87"/>
<path d="M263.065 285.014V234.944L182.461 281.257V331.326L263.065 285.014Z" fill="#4D565D"/>
<path d="M263.065 227.056V176.986L182.46 130.674V180.743L263.065 227.056ZM0 218.147V105.612L183.158 0V112.481L0 218.147Z" fill="#707D87"/>
<path d="M0 356.387V243.852L183.158 349.518V462L0 356.387Z" fill="#4D565D"/>
<path d="M102.553 285.014V234.944L183.158 281.257V331.326L102.553 285.014Z" fill="#707D87"/>
<path d="M102.553 227.056V176.987L183.158 130.674V180.743L102.553 227.056Z" fill="#4D565D"/>
</g>
<defs>
<clipPath id="clip0_71_338">
<rect width="365.618" height="462" fill="white"/>
</clipPath>
</defs>
</svg>
