<svg width="42" height="47" viewBox="0 0 42 47" fill="none" xmlns="http://www.w3.org/2000/svg">
<path d="M21.126 28.8816C23.9549 28.8816 26.2482 26.2955 26.2482 23.1053C26.2482 19.9151 23.9549 17.329 21.126 17.329C18.2971 17.329 16.0039 19.9151 16.0039 23.1053C16.0039 26.2955 18.2971 28.8816 21.126 28.8816Z" fill="#42927B"/>
<path d="M22.8334 7.83456V3.85083H19.4186V7.83456C16.4139 8.26654 13.6215 9.81148 11.4796 12.2269C9.3378 14.6423 7.96782 17.7913 7.58476 21.1798H4.05219V25.0307H7.58476C7.96754 28.4192 9.33743 31.5685 11.4793 33.9839C13.6212 36.3994 16.4138 37.9442 19.4186 38.3759V42.3596H22.8334V38.3759C25.8382 37.9442 28.6308 36.3994 30.7727 33.9839C32.9146 31.5685 34.2845 28.4192 34.6673 25.0307H38.1999V21.1798H34.6673C34.2842 17.7913 32.9143 14.6423 30.7724 12.2269C28.6306 9.81148 25.8381 8.26654 22.8334 7.83456ZM21.126 34.6578C15.4763 34.6578 10.8817 29.4765 10.8817 23.1052C10.8817 16.7339 15.4763 11.5526 21.126 11.5526C26.7758 11.5526 31.3703 16.7339 31.3703 23.1052C31.3703 29.4765 26.7758 34.6578 21.126 34.6578Z" fill="#42927B"/>
</svg>
