<svg width="42" height="47" viewBox="0 0 42 47" fill="none" xmlns="http://www.w3.org/2000/svg">
<path d="M21.0707 42.9C22.9566 42.9 24.4855 41.1759 24.4855 39.0491C24.4855 36.9223 22.9566 35.1982 21.0707 35.1982C19.1848 35.1982 17.6559 36.9223 17.6559 39.0491C17.6559 41.1759 19.1848 42.9 21.0707 42.9Z" fill="#8D84C2"/>
<path d="M21.0707 12.0931C22.9566 12.0931 24.4855 10.369 24.4855 8.24217C24.4855 6.11539 22.9566 4.3913 21.0707 4.3913C19.1848 4.3913 17.6559 6.11539 17.6559 8.24217C17.6559 10.369 19.1848 12.0931 21.0707 12.0931Z" fill="#8D84C2"/>
<path d="M11.412 38.3888C13.2979 38.3888 14.8268 36.6647 14.8268 34.5379C14.8268 32.4111 13.2979 30.687 11.412 30.687C9.5261 30.687 7.99725 32.4111 7.99725 34.5379C7.99725 36.6647 9.5261 38.3888 11.412 38.3888Z" fill="#8D84C2"/>
<path d="M30.7294 16.6043C32.6153 16.6043 34.1441 14.8802 34.1441 12.7535C34.1441 10.6267 32.6153 8.90259 30.7294 8.90259C28.8435 8.90259 27.3146 10.6267 27.3146 12.7535C27.3146 14.8802 28.8435 16.6043 30.7294 16.6043Z" fill="#8D84C2"/>
<path d="M7.41162 27.4985C9.29849 27.4985 10.8281 25.7735 10.8281 23.6457C10.8281 21.5178 9.29849 19.7928 7.41162 19.7928C5.52476 19.7928 3.99515 21.5178 3.99515 23.6457C3.99515 25.7735 5.52476 27.4985 7.41162 27.4985Z" fill="#8D84C2"/>
<path d="M34.7298 27.4966C36.6157 27.4966 38.1445 25.7725 38.1445 23.6457C38.1445 21.5189 36.6157 19.7948 34.7298 19.7948C32.8438 19.7948 31.315 21.5189 31.315 23.6457C31.315 25.7725 32.8438 27.4966 34.7298 27.4966Z" fill="#8D84C2"/>
<path d="M11.412 16.6063C13.2979 16.6063 14.8268 14.8822 14.8268 12.7554C14.8268 10.6286 13.2979 8.90454 11.412 8.90454C9.5261 8.90454 7.99725 10.6286 7.99725 12.7554C7.99725 14.8822 9.5261 16.6063 11.412 16.6063Z" fill="#8D84C2"/>
<path d="M30.7294 38.3907C32.6153 38.3907 34.1441 36.6666 34.1441 34.5398C34.1441 32.4131 32.6153 30.689 30.7294 30.689C28.8435 30.689 27.3146 32.4131 27.3146 34.5398C27.3146 36.6666 28.8435 38.3907 30.7294 38.3907Z" fill="#8D84C2"/>
</svg>
