<svg width="52" height="65" viewBox="0 0 52 65" fill="none" xmlns="http://www.w3.org/2000/svg">
<g clip-path="url(#clip0_32_200)">
<path d="M51.4399 30.6917V14.8589L25.6709 0V15.8253L51.4399 30.6917Z" fill="#4D565D"/>
<path d="M51.4399 50.1411V34.3082L25.6709 49.1746V64.9999L51.4399 50.1411Z" fill="#707D87"/>
<path d="M37.0114 40.0993V33.0549L25.6709 39.5708V46.6152L37.0114 40.0993Z" fill="#4D565D"/>
<path d="M37.0113 31.9451V24.9007L25.6708 18.3848V25.4292L37.0113 31.9451ZM0 30.6917V14.8589L25.769 0V15.8253L0 30.6917Z" fill="#707D87"/>
<path d="M0 50.1411V34.3082L25.769 49.1746V64.9999L0 50.1411Z" fill="#4D565D"/>
<path d="M14.4285 40.0993V33.0549L25.7689 39.5708V46.6152L14.4285 40.0993Z" fill="#707D87"/>
<path d="M14.4285 31.9451V24.9007L25.7689 18.3849V25.4293L14.4285 31.9451Z" fill="#4D565D"/>
</g>
<defs>
<clipPath id="clip0_32_200">
<rect width="51.4398" height="65" fill="white"/>
</clipPath>
</defs>
</svg>
